<svg width="28" height="28" viewBox="0 0 28 28" fill="none" xmlns="http://www.w3.org/2000/svg">
  <!-- Контур документа с загнутым углом -->
  <path d="M9 4h8l5 5v12a3 3 0 0 1-3 3H9a3 3 0 0 1-3-3V7a3 3 0 0 1 3-3Z" stroke="currentColor" stroke-width="2" stroke-linejoin="round"/>
  <path d="M17 4v5a2 2 0 0 0 2 2h5" stroke="currentColor" stroke-width="2"/>

  <!-- Черновые волнистые линии (имитация набросков/черновика) -->
  <path d="M8.5 12c2 .8 4-.8 6 0s4 .8 5.5 0" stroke="currentColor" stroke-width="1.8" stroke-linecap="round" opacity="0.9"/>
  <path d="M8.5 15c1.8 .7 3.6-.7 5.4 0s3.6 .7 5 0" stroke="currentColor" stroke-width="1.6" stroke-linecap="round" opacity="0.7"/>
  <path d="M8.5 18c1.6 .6 3.2-.6 4.8 0s3.2 .6 4.5 0" stroke="currentColor" stroke-width="1.6" stroke-linecap="round" opacity="0.55"/>

  <!-- Небольшой штрих-правка (символизирует корректировки в черновике) -->
  <path d="M14.5 16l3-3" stroke="currentColor" stroke-width="2" stroke-linecap="round"/>
</svg>

